<svg width="30" height="30" viewBox="0 0 30 30" fill="none" xmlns="http://www.w3.org/2000/svg">
<g clip-path="url(#clip0_115_1627)">
<path d="M1.57206 11.6551C1.26495 12.8034 1.04065 14.2862 0.728605 16.3492C0.0160616 21.0599 -0.34021 23.4152 0.443159 25.2445C1.13088 26.8504 2.40068 28.1895 4.03844 29.0359C5.904 30 8.49377 30 13.6733 30H16.3267C21.5062 30 24.096 30 25.9616 29.0359C27.5993 28.1895 28.8691 26.8504 29.5568 25.2445C30.3402 23.4152 29.9839 21.0599 29.2714 16.3492C28.9325 14.1087 28.6971 12.5524 28.3467 11.3659L27.1535 12.4616C24.4869 14.91 22.3973 16.8288 20.5476 18.1246C18.6543 19.4509 16.8692 20.2302 14.8019 20.2302C12.7347 20.2302 10.9495 19.4509 9.05628 18.1246C7.2066 16.8288 5.11692 14.91 2.45041 12.4616L1.57206 11.6551Z" fill="#090909"/>
<path d="M2.57247 9.39166L4.11683 10.8097C6.86403 13.3322 8.83911 15.1423 10.5427 16.3358C12.218 17.5094 13.4859 17.9802 14.8019 17.9802C16.118 17.9802 17.3859 17.5094 19.0612 16.3358C20.7648 15.1423 22.7398 13.3322 25.487 10.8097L27.2672 9.17514C26.4374 8.09556 25.3101 7.23463 23.9977 6.68225C22.3769 6 20.3602 6 16.3266 6H13.6733C9.63983 6 7.62308 6 6.00226 6.68225C4.60337 7.27108 3.41471 8.21051 2.57247 9.39166Z" fill="#090909"/>
</g>
<defs>
<clipPath id="clip0_115_1627">
<rect width="30" height="30" fill="white"/>
</clipPath>
</defs>
</svg>
