<svg width="30" height="30" viewBox="0 0 30 30" fill="none" xmlns="http://www.w3.org/2000/svg">
<g clip-path="url(#clip0_115_1638)">
<g clip-path="url(#clip1_115_1638)">
<path d="M41.875 25.3375C43.2557 25.3375 44.375 24.2182 44.375 22.8375C44.375 21.4568 43.2557 20.3375 41.875 20.3375C40.4943 20.3375 39.375 21.4568 39.375 22.8375C39.375 24.2182 40.4943 25.3375 41.875 25.3375Z" fill="black"/>
<path d="M38.125 38.4125H35.625C35.625 40.475 33.9375 42.1625 31.875 42.1625C29.8125 42.1625 28.125 40.475 28.125 38.4125C28.125 36.35 29.8125 34.6625 31.875 34.6625V32.1625C28.425 32.1625 25.625 34.9625 25.625 38.4125C25.625 41.8625 28.425 44.6625 31.875 44.6625C35.325 44.6625 38.125 41.8625 38.125 38.4125ZM41.875 34.0375H39.55L41.6375 29.45C42.4 27.7875 41.175 25.9125 39.325 25.9125H32.825C31.8125 25.9125 30.9 26.5 30.4875 27.4125L29.65 29.6625L32.05 30.325L32.8625 28.4125H35.625L33.3375 33.5375C32.5875 35.2 33.825 37.1625 35.65 37.1625H41.875V43.4125H44.375V36.5375C44.375 35.1625 43.25 34.0375 41.875 34.0375Z" fill="black"/>
<path d="M18.125 7.83749C19.5057 7.83749 20.625 6.71821 20.625 5.33749C20.625 3.95678 19.5057 2.83749 18.125 2.83749C16.7443 2.83749 15.625 3.95678 15.625 5.33749C15.625 6.71821 16.7443 7.83749 18.125 7.83749Z" fill="black"/>
<path d="M14.375 20.9125H11.875C11.875 22.975 10.1875 24.6625 8.125 24.6625C6.0625 24.6625 4.375 22.975 4.375 20.9125C4.375 18.85 6.0625 17.1625 8.125 17.1625V14.6625C4.675 14.6625 1.875 17.4625 1.875 20.9125C1.875 24.3625 4.675 27.1625 8.125 27.1625C11.575 27.1625 14.375 24.3625 14.375 20.9125ZM18.125 16.5375H15.8L17.8875 11.95C18.65 10.2875 17.425 8.41249 15.575 8.41249H9.075C8.0625 8.41249 7.15 8.99999 6.7375 9.91249L5.9 12.1625L8.3 12.825L9.1125 10.9125H11.875L9.5875 16.0375C8.8375 17.7 10.075 19.6625 11.9 19.6625H18.125V25.9125H20.625V19.0375C20.625 17.6625 19.5 16.5375 18.125 16.5375Z" fill="black"/>
</g>
</g>
<defs>
<clipPath id="clip0_115_1638">
<rect width="30" height="30" fill="white"/>
</clipPath>
<clipPath id="clip1_115_1638">
<rect width="30" height="30" fill="white"/>
</clipPath>
</defs>
</svg>
