<svg width="30" height="30" viewBox="0 0 30 30" fill="none" xmlns="http://www.w3.org/2000/svg">
<g clip-path="url(#clip0_742_1739)">
<g clip-path="url(#clip1_742_1739)">
<path d="M41.875 25.3375C43.2557 25.3375 44.375 24.2182 44.375 22.8375C44.375 21.4568 43.2557 20.3375 41.875 20.3375C40.4943 20.3375 39.375 21.4568 39.375 22.8375C39.375 24.2182 40.4943 25.3375 41.875 25.3375Z" fill="black"/>
<path d="M38.125 38.4125H35.625C35.625 40.475 33.9375 42.1625 31.875 42.1625C29.8125 42.1625 28.125 40.475 28.125 38.4125C28.125 36.35 29.8125 34.6625 31.875 34.6625V32.1625C28.425 32.1625 25.625 34.9625 25.625 38.4125C25.625 41.8625 28.425 44.6625 31.875 44.6625C35.325 44.6625 38.125 41.8625 38.125 38.4125ZM41.875 34.0375H39.55L41.6375 29.45C42.4 27.7875 41.175 25.9125 39.325 25.9125H32.825C31.8125 25.9125 30.9 26.5 30.4875 27.4125L29.65 29.6625L32.05 30.325L32.8625 28.4125H35.625L33.3375 33.5375C32.5875 35.2 33.825 37.1625 35.65 37.1625H41.875V43.4125H44.375V36.5375C44.375 35.1625 43.25 34.0375 41.875 34.0375Z" fill="black"/>
</g>
<rect x="3.75" y="9.5" width="22.5" height="16.25" rx="2" stroke="#33363F" stroke-width="2"/>
<path d="M8.75 20.75H8.7625" stroke="#33363F" stroke-width="2" stroke-linecap="round"/>
<path d="M5 15.75H26.25" stroke="#33363F" stroke-width="2" stroke-linecap="round"/>
</g>
<defs>
<clipPath id="clip0_742_1739">
<rect width="30" height="30" fill="white"/>
</clipPath>
<clipPath id="clip1_742_1739">
<rect width="30" height="30" fill="white"/>
</clipPath>
</defs>
</svg>
