<svg width="30" height="30" viewBox="0 0 30 30" fill="none" xmlns="http://www.w3.org/2000/svg">
<g clip-path="url(#clip0_115_1605)">
<path d="M2.92676 24.1223C2.92676 22.4647 3.58524 20.875 4.75734 19.7029C5.92944 18.5308 7.51915 17.8723 9.17676 17.8723H21.6768C23.3344 17.8723 24.9241 18.5308 26.0962 19.7029C27.2683 20.875 27.9268 22.4647 27.9268 24.1223C27.9268 24.9511 27.5975 25.746 27.0115 26.332C26.4254 26.9181 25.6306 27.2473 24.8018 27.2473H6.05176C5.22296 27.2473 4.4281 26.9181 3.84205 26.332C3.256 25.746 2.92676 24.9511 2.92676 24.1223Z" stroke="black" stroke-width="2" stroke-linejoin="round"/>
<path d="M15.6631 12.5665C18.2519 12.5665 20.3506 10.4678 20.3506 7.87897C20.3506 5.29013 18.2519 3.19147 15.6631 3.19147C13.0743 3.19147 10.9756 5.29013 10.9756 7.87897C10.9756 10.4678 13.0743 12.5665 15.6631 12.5665Z" stroke="black" stroke-width="2"/>
</g>
<defs>
<clipPath id="clip0_115_1605">
<rect width="30" height="30" fill="white"/>
</clipPath>
</defs>
</svg>
