<?xml version="1.0" encoding="UTF-8"?>
<svg width="21px" height="30px" viewBox="0 0 21 30" version="1.1" 
    xmlns="http://www.w3.org/2000/svg" 
    xmlns:xlink="http://www.w3.org/1999/xlink">
    <!-- Generator: Sketch 61 (89581) - https://sketch.com -->
    <title>Not Accessible Pin</title>
    <desc>Created with Sketch.</desc>
    <g id="Not-Accessible-Pin" stroke="none" stroke-width="1" fill="none" fill-rule="evenodd">
        <path d="M10.5,30 L11.5824742,28.7379808 C12.4965636,27.65625 13.362543,26.5504808 14.1804124,25.4206731 C15.3591065,23.8100962 16.4054983,22.2596154 17.3195876,20.7692308 C18.4261168,18.8942308 19.2920962,17.1514423 19.9175258,15.5408654 C20.6391753,13.6418269 21,11.9591346 21,10.4927885 C21,8.56971154 20.5309278,6.80288462 19.5927835,5.19230769 C18.6546392,3.60576923 17.3917526,2.34375 15.8041237,1.40625 C14.1924399,0.46875 12.4243986,0 10.5,0 C8.57560137,0 6.80756014,0.46875 5.19587629,1.40625 C3.60824742,2.34375 2.34536082,3.60576923 1.40721649,5.19230769 C0.469072165,6.80288462 0,8.56971154 0,10.4927885 C0,11.9591346 0.360824742,13.6418269 1.08247423,15.5408654 C1.70790378,17.1514423 2.57388316,18.8942308 3.68041237,20.7692308 C4.59450172,22.2596154 5.64089347,23.8100962 6.81958763,25.4206731 C7.63745704,26.5504808 8.50343643,27.65625 9.41752577,28.7379808 L10.5,30 Z" id="Pin" fill="#B5000D" fill-rule="nonzero"></path>
        <path d="M16.467,14.075 L16.467,7.575 L14.283,7.575 L14.283,14.075 L16.467,14.075 Z M9.33,18.417 L12.892,14.842 C13.1086667,14.608 13.217,14.3523333 13.217,14.075 L13.217,14.075 L13.217,8.667 C13.217,8.37233333 13.1086667,8.11666667 12.892,7.9 C12.6753333,7.68333333 12.4196667,7.575 12.125,7.575 L12.125,7.575 L7.25,7.575 C7.02466667,7.575 6.82316667,7.63566667 6.6455,7.757 C6.46783333,7.87833333 6.34,8.03866667 6.262,8.238 L6.262,8.238 L4.611,12.047 C4.559,12.1596667 4.533,12.294 4.533,12.45 L4.533,12.45 L4.533,13.49 L4.559,13.49 L4.533,13.542 C4.533,13.8366667 4.64133333,14.088 4.858,14.296 C5.07466667,14.504 5.33033333,14.608 5.625,14.608 L5.625,14.608 L9.057,14.608 L8.524,17.091 L8.524,17.273 C8.524,17.481 8.59766667,17.6673333 8.745,17.832 L8.745,17.832 L9.33,18.417 Z" id="" fill="#FFFFFF" fill-rule="nonzero"></path>
    </g>
</svg>