<?xml version="1.0" encoding="UTF-8"?>
<svg width="21px" height="30px" viewBox="0 0 21 30" version="1.1" xmlns="http://www.w3.org/2000/svg" xmlns:xlink="http://www.w3.org/1999/xlink">
    <!-- Generator: Sketch 61 (89581) - https://sketch.com -->
    <title>Partially Accessible Pin</title>
    <desc>Created with Sketch.</desc>
    <g id="Partially-Accessible-Pin" stroke="none" stroke-width="1" fill="none" fill-rule="evenodd">
        <path d="M10.5,30 L11.5824742,28.7379808 C12.4965636,27.65625 13.362543,26.5504808 14.1804124,25.4206731 C15.3591065,23.8100962 16.4054983,22.2596154 17.3195876,20.7692308 C18.4261168,18.8942308 19.2920962,17.1514423 19.9175258,15.5408654 C20.6391753,13.6418269 21,11.9591346 21,10.4927885 C21,8.56971154 20.5309278,6.80288462 19.5927835,5.19230769 C18.6546392,3.60576923 17.3917526,2.34375 15.8041237,1.40625 C14.1924399,0.46875 12.4243986,0 10.5,0 C8.57560137,0 6.80756014,0.46875 5.19587629,1.40625 C3.60824742,2.34375 2.34536082,3.60576923 1.40721649,5.19230769 C0.469072165,6.80288462 0,8.56971154 0,10.4927885 C0,11.9591346 0.360824742,13.6418269 1.08247423,15.5408654 C1.70790378,17.1514423 2.57388316,18.8942308 3.68041237,20.7692308 C4.59450172,22.2596154 5.64089347,23.8100962 6.81958763,25.4206731 C7.63745704,26.5504808 8.50343643,27.65625 9.41752577,28.7379808 L10.5,30 Z" id="Pin" fill="#EDB106" fill-rule="nonzero"></path>
        <path d="M10.4664644,12.6161098 C12.3251183,12.6161098 13.882114,11.9845131 13.9755966,11.1596667 C13.6990767,10.3843111 13.3982042,9.53903992 13.102045,8.70790899 C12.8962262,9.30022725 11.7602949,9.71893499 10.46725,9.71893499 C9.17341949,9.71893499 8.03748817,9.30101282 7.83166936,8.70790899 C7.53551023,9.53903992 7.23463768,10.3843111 6.95890332,11.1604523 C7.05081477,11.9845131 8.60702497,12.6161098 10.4664644,12.6161098 L10.4664644,12.6161098 Z M10.4664644,7.40150941 C11.340016,7.40150941 12.1522933,7.13127402 12.3895349,6.71099515 C12.061953,5.79109503 11.7807197,5.00238476 11.6023957,4.50433465 C11.4845605,4.17203939 10.9488032,4 10.4664644,4 C9.98334009,4 9.44758272,4.17203939 9.32974752,4.50433465 C9.15220916,5.00238476 8.87097582,5.79109503 8.54339396,6.71099515 C8.77984993,7.13048845 9.5929128,7.40150941 10.4664644,7.40150941 L10.4664644,7.40150941 Z M17.295407,13.3843953 L14.3746652,12.2076144 L14.7108883,13.1463682 C14.6943914,14.1408972 12.7634652,14.9335353 10.4664644,14.9335353 C8.1694636,14.9335353 6.2377519,14.1408972 6.22204054,13.1463682 L6.55826364,12.2076144 L3.63752184,13.3843953 C2.81817442,13.7143338 2.784395,14.3255057 3.56053618,14.7418567 L9.05322759,17.6877367 C9.83015434,18.1040878 11.1019889,18.1040878 11.8789157,17.6877367 L17.3723926,14.7418567 C18.1485338,14.3255057 18.1147544,13.7143338 17.295407,13.3843953 L17.295407,13.3843953 Z" id="Shape" fill="#FFFFFF"></path>
    </g>
</svg>